<?xml version="1.0" encoding="utf-8"?>
<!-- Generator: Adobe Illustrator 16.0.0, SVG Export Plug-In . SVG Version: 6.00 Build 0)  -->
<!DOCTYPE svg PUBLIC "-//W3C//DTD SVG 1.1//EN" "http://www.w3.org/Graphics/SVG/1.1/DTD/svg11.dtd">
<svg version="1.1" id="Layer_1" xmlns="http://www.w3.org/2000/svg" xmlns:xlink="http://www.w3.org/1999/xlink" x="0px" y="0px"
	 width="93.447px" height="59.501px" viewBox="0 0 93.447 59.501" enable-background="new 0 0 93.447 59.501" xml:space="preserve">
<g>
	<polygon fill="#FF694C" points="72.045,-0.002 49.902,12.344 47.001,30.837 	"/>
	<polygon fill="#FF464D" points="72.2,-0.002 83.964,3.492 72.2,29.833 	"/>
	<polygon fill="#FF694C" points="83.75,48.117 85.807,56.589 71.916,59.501 	"/>
	<polygon fill="#FF464D" points="72.2,29.833 72.2,44.537 84.034,48.117 	"/>
	<polygon fill="#FF4651" points="93.447,12.344 83.679,3.492 83.75,48.117 	"/>
	<polygon fill="#FF3B48" points="85.685,56.589 93.2,48.724 93.2,12.344 83.565,48.117 	"/>
	<polygon fill="#FFDC89" points="51.932,53.56 47.014,34.742 71.916,59.501 	"/>
	<polygon fill="#FF5748" points="83.679,3.492 83.75,48.117 71.916,29.833 	"/>
	<polygon fill="#FF3247" points="72.2,44.537 72.2,59.501 84.034,48.117 	"/>
	<polygon fill="#F4F40F" points="72.2,22.367 72.2,14.916 47.284,30.837 	"/>
	<polygon fill="#FF8F48" points="72.2,-0.002 72.2,14.916 47.284,30.837 	"/>
	<polygon fill="#FF904E" points="72.2,51.548 47.298,34.742 72.2,59.501 	"/>
	<polygon fill="#FF6A41" points="72.2,51.548 72.2,44.537 47.298,34.742 	"/>
</g>
<g>
	<polygon fill="#5ECDEA" points="21.402,0 43.545,12.346 46.446,30.839 	"/>
	<polygon fill="#64EDE9" points="21.2,0 9.437,3.494 21.2,29.835 	"/>
	<polygon fill="#5ECDEA" points="9.697,48.119 7.641,56.589 21.531,59.501 	"/>
	<polygon fill="#64EDE9" points="21.2,29.835 21.2,44.537 9.366,48.119 	"/>
	<polygon fill="#43EDE5" points="0,12.346 9.769,3.494 9.697,48.119 	"/>
	<polygon fill="#72F7ED" points="7.741,56.589 0.2,48.726 0.2,12.346 9.848,48.119 	"/>
	<polygon fill="#0665B2" points="41.516,53.562 46.434,34.744 21.531,59.501 	"/>
	<polygon fill="#4FDEED" points="9.769,3.494 9.697,48.119 21.531,29.835 	"/>
	<polygon fill="#1DFFEE" points="21.2,44.537 21.2,59.501 9.366,48.119 	"/>
	<polygon fill="#7FD3AA" points="21.2,22.369 21.2,14.918 46.116,30.839 	"/>
	<polygon fill="#40ABED" points="21.2,0 21.2,14.918 46.116,30.839 	"/>
	<polygon fill="#60AAE8" points="21.2,51.55 46.103,34.744 21.2,59.501 	"/>
	<polygon fill="#90CCF4" points="21.2,51.55 21.2,44.537 46.103,34.744 	"/>
</g>
</svg>
